# xmcd
#
# Track frame offsets: 
#        150
#        11417
#        21762
#        35715
#        45615
#        56242
#        67870
#        80447
#        91742
#        104595
#        114907
#        124055
#        135095
#        145090
#        157765
#        168817
#        179825
#        194695
#        204632
#        215327
#        225902
#        236987
#        245670
#        257220
#        269485
#        281550
#
# Disc length: 3881 seconds
#
# Revision: 1
# Processed by: cddbd v1.5.2PL0 Copyright (c) Steve Scherf et al.
# Submitted via: ExactAudioCopy v0.95b4
#
DISCID=6f0f271a
DTITLE=Jim and Jesse - Bluegrass and More Vol.1
DYEAR=1900
DGENRE=Country
TTITLE0=Stormy Horizons
TTITLE1=Gosh, I Miss You All The Time
TTITLE2=The Flame Of Love
TTITLE3=Beautiful Moon Of Kentucky
TTITLE4=My Empty Arms
TTITLE5=Diesel Train
TTITLE6=The Voice Of My Darling
TTITLE7=Uncle Will Played The Fiddle
TTITLE8=Fireball
TTITLE9=Heartaches And Flowers
TTITLE10=Sweet Little Miss Blue Eyes
TTITLE11=Somebody Loves You, Darling
TTITLE12=She Left Me Standing On The Mountain
TTITLE13=Don't Say Goodbye If You Love Me
TTITLE14=I Wish You Knew
TTITLE15=When It's Time For The Whippoorwill To Sing
TTITLE16=Grave In The Valley
TTITLE17=Blue Bonnet Lane
TTITLE18=Are You Missing Me
TTITLE19=Congratulations, Anyway!
TTITLE20=Pickin' And A-Grinnin'
TTITLE21=Stoney Creek
TTITLE22=Sixteen Hundred Miles From Home
TTITLE23=The South Bound Train
TTITLE24=Ballad Of Thunder Road
TTITLE25=Uncle Jimmy Lee
EXTD=
EXTT0=
EXTT1=
EXTT2=
EXTT3=
EXTT4=
EXTT5=
EXTT6=
EXTT7=
EXTT8=
EXTT9=
EXTT10=
EXTT11=
EXTT12=
EXTT13=
EXTT14=
EXTT15=
EXTT16=
EXTT17=
EXTT18=
EXTT19=
EXTT20=
EXTT21=
EXTT22=
EXTT23=
EXTT24=
EXTT25=
PLAYORDER=
